<?xml version="1.0" encoding="utf-8"?>
<!-- Generator: Adobe Illustrator 24.2.1, SVG Export Plug-In . SVG Version: 6.00 Build 0)  -->
<svg version="1.1" id="Layer_1" xmlns="http://www.w3.org/2000/svg" xmlns:xlink="http://www.w3.org/1999/xlink" x="0px" y="0px"
	 viewBox="0 0 512 512" style="enable-background:new 0 0 512 512;" xml:space="preserve">
<style type="text/css">
	.st0{fill:#C69C6D;}
	.st1{fill:#424242;}
	.st2{fill:#EF9A9A;}
	.st3{fill:#FFFFFF;}
</style>
<path class="st0" d="M448,149.3v213.3c0,47.1-38.2,85.3-85.3,85.3H149.3c-47.1,0-85.3-38.2-85.3-85.3V149.3
	c0-47.1,38.2-85.3,85.3-85.3h213.3c14.8,0,28.7,3.8,40.8,10.4c16,8.7,28.8,22.3,36.5,38.9C445.1,124.2,448,136.4,448,149.3z"/>
<circle class="st1" cx="178.9" cy="246.1" r="9.7"/>
<circle class="st1" cx="309.2" cy="210.2" r="9.7"/>
<path class="st1" d="M349.1,245.8c6.1,22-9.3,76.1-74.3,94.1c-65.2,18-105.9-20.5-112-42.7c-8.5-30.9,35.7-16.5,91.4-31.9
	C310.1,249.9,340.6,215.1,349.1,245.8z"/>
<path class="st2" d="M273.5,335.2c27.6-7.6,44.9-26.4,56.8-41.9c-8.8-14.1-26-21.6-42.9-16.9c-11.2,3.1-19.7,10.9-24.4,20.5
	c-9-5.9-20.3-8.2-31.5-5.2c-16.9,4.7-27.9,19.9-28.2,36.6C221.3,335.6,245.8,342.9,273.5,335.2z"/>
<path class="st3" d="M243.8,318.4c-5.5,1.5-9.9,4.8-13,9.1c-4.2-7.6-13.2-11.7-22-9.3c-7.2,2-12.2,7.8-13.7,14.6
	c19.1,10.6,45.9,16.3,79.2,7.3c-0.1-1.6-0.4-3.2-0.8-4.8C269.9,322.4,256.6,314.8,243.8,318.4z"/>
<path class="st3" d="M275.2,339.7c33.1-9.2,53.2-27.9,64.2-46.9c-4.7-5-12-7.4-19.1-5.4c-8.8,2.4-14.4,10.5-14.1,19.2
	c-4.8-2.1-10.4-2.7-15.8-1.2c-12.9,3.5-20.4,16.8-16.9,29.7C273.9,336.8,274.5,338.3,275.2,339.7z"/>
</svg>
